<?xml version="1.0" encoding="UTF-8"?><svg width="145" height="18" viewBox="0 0 145 18" fill="none" xmlns="http://www.w3.org/2000/svg">
<g clip-path="url(#clip0_56_9454)">
<path d="M28.6595 10.4415C28.3 9.77331 27.7345 9.22489 26.9631 8.79623C26.8945 8.74513 26.8945 8.69326 26.9631 8.64368C28.2654 7.90687 28.9165 6.72411 28.9165 5.0954C28.9165 3.26176 28.364 1.95492 27.2591 1.17489C26.1541 0.394858 24.5046 0.00458722 22.3104 0.00407872H15.6745C15.6229 0.00103539 15.5712 0.00852692 15.5225 0.0260977C15.4739 0.0436684 15.4293 0.0709511 15.3915 0.106286C15.3569 0.144369 15.3303 0.189075 15.3134 0.237709C15.2965 0.286343 15.2896 0.337897 15.2931 0.389265V17.6143C15.2886 17.6658 15.2953 17.7176 15.3127 17.7663C15.3302 17.8149 15.358 17.8591 15.3943 17.8959C15.4306 17.9327 15.4745 17.9612 15.5229 17.9793C15.5712 17.9975 15.623 18.0049 15.6745 18.001H22.5392C24.5096 18.001 26.1114 17.5853 27.3445 16.7539C28.5776 15.9225 29.1947 14.6241 29.1957 12.8586C29.1957 11.9169 29.0157 11.1114 28.6557 10.4422" fill="#092347"/>
<path d="M11.8359 9.00038V5.74346C11.8359 5.53829 11.9183 5.35141 12.1967 5.28582L14.0608 4.94792C14.208 4.91436 14.3293 4.88614 14.3293 4.60545V0.361541C14.3293 0.265786 14.2913 0.173942 14.2237 0.106162C14.156 0.038382 14.0643 0.000202014 13.9685 0L7.29451 0C5.94699 0.00966143 4.75736 0.277893 3.72563 0.804695C2.70897 1.31054 1.86105 2.1007 1.28484 3.0792C0.708717 4.05958 0.420654 5.19429 0.420654 6.48333V11.5174C0.420654 12.808 0.709734 13.9432 1.28789 14.9231C1.86431 15.9014 2.71217 16.6915 3.72868 17.1976C4.75736 17.7249 5.94597 17.9926 7.29451 18.0008H13.9685C14.0643 18.0006 14.156 17.9624 14.2237 17.8946C14.2913 17.8268 14.3293 17.735 14.3293 17.6392V13.3923C14.3293 13.1116 14.208 13.0834 14.0608 13.0498L12.1967 12.7119C11.9183 12.6486 11.8359 12.4617 11.8359 12.2542V9.00038Z" fill="#092347"/>
<path d="M138.62 6.35599C137.895 6.35599 137.307 6.656 136.855 7.25602C136.843 7.28959 136.826 7.30103 136.804 7.28959C136.792 7.28307 136.782 7.2731 136.776 7.26097C136.77 7.24885 136.768 7.23516 136.769 7.2217V6.67863C136.769 6.65185 136.764 6.62533 136.754 6.60057C136.744 6.57582 136.729 6.55333 136.71 6.5344C136.691 6.51547 136.668 6.50047 136.644 6.49027C136.619 6.48007 136.592 6.47487 136.566 6.47497H134.155C134.129 6.47487 134.102 6.48007 134.077 6.49027C134.053 6.50047 134.03 6.51547 134.011 6.5344C133.992 6.55333 133.977 6.57582 133.967 6.60057C133.957 6.62533 133.952 6.65185 133.952 6.67863V15.0467C133.952 15.0735 133.957 15.1 133.967 15.1247C133.977 15.1495 133.992 15.172 134.011 15.1909C134.03 15.2099 134.053 15.2249 134.077 15.2351C134.102 15.2452 134.129 15.2504 134.155 15.2503H136.566C136.592 15.2504 136.619 15.2452 136.644 15.2351C136.668 15.2249 136.691 15.2099 136.71 15.1909C136.729 15.172 136.744 15.1495 136.754 15.1247C136.764 15.1 136.769 15.0735 136.769 15.0467V10.5824C136.763 10.4157 136.792 10.2496 136.855 10.0951C136.918 9.9407 137.014 9.80151 137.135 9.68689C137.38 9.45921 137.693 9.31643 138.026 9.27959C138.171 9.25295 138.319 9.24145 138.467 9.24526C138.661 9.24693 138.855 9.26969 139.044 9.31315C139.191 9.37061 139.27 9.3312 139.282 9.19492L139.672 6.83499C139.686 6.78732 139.684 6.7364 139.665 6.69036C139.647 6.64432 139.613 6.60581 139.57 6.581C139.344 6.43353 139.027 6.3598 138.62 6.3598M128.758 8.75329C129.038 8.74298 129.314 8.82003 129.548 8.97372C129.764 9.13098 129.917 9.35958 129.98 9.61901C130.02 9.72796 130.043 9.84246 130.048 9.95843C130.049 9.96764 130.048 9.97702 130.045 9.98583C130.042 9.99464 130.038 10.0026 130.031 10.0092C130.024 10.0158 130.016 10.0208 130.008 10.0237C129.999 10.0267 129.989 10.0276 129.98 10.0263H127.57C127.502 10.0263 127.479 9.99809 127.502 9.94165C127.516 9.81965 127.544 9.69978 127.587 9.58468C127.779 9.03093 128.169 8.7538 128.758 8.75329ZM132.917 10.0942C132.816 9.40276 132.57 8.74046 132.195 8.15072C131.838 7.58963 131.345 7.12827 130.761 6.80982C130.146 6.48067 129.456 6.31422 128.758 6.32624C127.83 6.32624 127.03 6.5665 126.356 7.04703C125.683 7.52756 125.2 8.18683 124.907 9.02483C124.726 9.57215 124.634 10.1453 124.636 10.7219C124.636 11.5706 124.754 12.2779 124.992 12.8439C125.289 13.6233 125.835 14.2828 126.546 14.7195C127.264 15.1675 128.138 15.3909 129.168 15.3899C129.819 15.3966 130.466 15.2815 131.075 15.0505C131.634 14.8404 132.136 14.5036 132.543 14.0666C132.563 14.0494 132.579 14.0285 132.591 14.0051C132.602 13.9817 132.609 13.9561 132.611 13.93C132.611 13.9036 132.606 13.8774 132.594 13.8537C132.582 13.8301 132.564 13.8097 132.543 13.7943L131.236 12.3008C131.221 12.2793 131.201 12.2619 131.177 12.25C131.153 12.2382 131.127 12.2323 131.101 12.2329C131.07 12.2341 131.041 12.2423 131.014 12.257C130.988 12.2717 130.965 12.2925 130.948 12.3176C130.541 12.7819 129.982 13.014 129.27 13.014C128.923 13.0249 128.579 12.9489 128.269 12.7928C128.015 12.6623 127.803 12.4623 127.658 12.2162C127.583 12.059 127.526 11.8936 127.489 11.7234C127.486 11.7185 127.484 11.713 127.484 11.7074C127.483 11.7017 127.483 11.696 127.485 11.6905C127.487 11.6851 127.489 11.6799 127.493 11.6755C127.496 11.6711 127.501 11.6674 127.506 11.6647C127.525 11.6486 127.549 11.6394 127.574 11.6388H132.75C132.779 11.6422 132.808 11.6394 132.835 11.6307C132.862 11.6219 132.887 11.6073 132.908 11.588C132.929 11.5686 132.946 11.5449 132.957 11.5185C132.968 11.4921 132.973 11.4637 132.972 11.4351C132.999 10.9875 132.981 10.5384 132.921 10.0942M120.376 12.3176C120.139 12.7595 119.794 12.9802 119.341 12.9797C118.866 12.9797 118.51 12.7648 118.274 12.3351C118.07 11.9614 117.968 11.4748 117.968 10.8752C117.968 10.2528 118.082 9.74918 118.308 9.36425C118.404 9.17385 118.552 9.01508 118.736 8.90688C118.92 8.79868 119.131 8.74562 119.344 8.75405C119.774 8.75405 120.108 8.95211 120.345 9.34823C120.56 9.71079 120.668 10.2193 120.668 10.8737C120.668 11.4732 120.571 11.954 120.379 12.3161M120.668 3.57426V7.10271C120.67 7.11617 120.667 7.12987 120.661 7.14199C120.655 7.15411 120.645 7.16408 120.633 7.1706C120.611 7.18204 120.588 7.1706 120.566 7.13704C120.147 6.60566 119.53 6.33971 118.715 6.33921C117.9 6.3387 117.207 6.55379 116.636 6.98449C116.063 7.41616 115.63 8.00617 115.389 8.68159C115.142 9.36623 115.021 10.0897 115.032 10.8173C115.027 11.4832 115.118 12.1462 115.303 12.7859C115.553 13.5899 115.974 14.2237 116.568 14.6874C117.15 15.147 117.872 15.3926 118.614 15.3831C119.463 15.3831 120.114 15.0719 120.566 14.4495C120.574 14.44 120.585 14.4327 120.596 14.4283C120.608 14.4239 120.621 14.4225 120.633 14.4243C120.656 14.4304 120.668 14.4495 120.668 14.4838V15.0436C120.668 15.0704 120.673 15.0969 120.683 15.1217C120.693 15.1465 120.708 15.1689 120.727 15.1879C120.746 15.2068 120.769 15.2218 120.793 15.232C120.818 15.2422 120.845 15.2474 120.871 15.2473H123.282C123.309 15.2474 123.335 15.2422 123.36 15.232C123.385 15.2218 123.407 15.2068 123.426 15.1879C123.445 15.1689 123.46 15.1465 123.47 15.1217C123.48 15.0969 123.485 15.0704 123.485 15.0436V3.57197C123.485 3.5452 123.48 3.51867 123.47 3.49392C123.46 3.46916 123.445 3.44667 123.426 3.42774C123.407 3.40881 123.385 3.39381 123.36 3.38361C123.335 3.37342 123.309 3.36822 123.282 3.36832H120.871C120.845 3.36822 120.818 3.37342 120.793 3.38361C120.769 3.39381 120.746 3.40881 120.727 3.42774C120.708 3.44667 120.693 3.46916 120.683 3.49392C120.673 3.51867 120.668 3.5452 120.668 3.57197M111.377 15.2503H113.787C113.814 15.2504 113.84 15.2452 113.865 15.2351C113.89 15.2249 113.912 15.2099 113.931 15.1909C113.95 15.172 113.965 15.1495 113.975 15.1247C113.986 15.1 113.991 15.0735 113.991 15.0467V3.57197C113.991 3.5452 113.986 3.51867 113.975 3.49392C113.965 3.46916 113.95 3.44667 113.931 3.42774C113.912 3.40881 113.89 3.39381 113.865 3.38361C113.84 3.37342 113.814 3.36822 113.787 3.36832H111.377C111.35 3.36822 111.324 3.37342 111.299 3.38361C111.274 3.39381 111.252 3.40881 111.233 3.42774C111.214 3.44667 111.199 3.46916 111.188 3.49392C111.178 3.51867 111.173 3.5452 111.173 3.57197V15.0467C111.173 15.0735 111.178 15.1 111.188 15.1247C111.199 15.1495 111.214 15.172 111.233 15.1909C111.252 15.2099 111.274 15.2249 111.299 15.2351C111.324 15.2452 111.35 15.2504 111.377 15.2503ZM107.269 15.2503H109.68C109.706 15.2504 109.733 15.2452 109.758 15.2351C109.783 15.2249 109.805 15.2099 109.824 15.1909C109.843 15.172 109.858 15.1495 109.868 15.1247C109.878 15.1 109.883 15.0735 109.883 15.0467V6.67863C109.883 6.65185 109.878 6.62533 109.868 6.60057C109.858 6.57582 109.843 6.55333 109.824 6.5344C109.805 6.51547 109.783 6.50047 109.758 6.49027C109.733 6.48007 109.706 6.47487 109.68 6.47497H107.269C107.242 6.47487 107.215 6.48007 107.191 6.49027C107.166 6.50047 107.143 6.51547 107.124 6.5344C107.106 6.55333 107.091 6.57582 107.08 6.60057C107.07 6.62533 107.065 6.65185 107.065 6.67863V15.0467C107.065 15.0735 107.07 15.1 107.08 15.1247C107.091 15.1495 107.106 15.172 107.124 15.1909C107.143 15.2099 107.166 15.2249 107.191 15.2351C107.215 15.2452 107.242 15.2504 107.269 15.2503ZM108.489 5.69392C108.686 5.70042 108.881 5.66608 109.064 5.59309C109.247 5.52009 109.412 5.41003 109.55 5.26984C109.686 5.13124 109.793 4.96663 109.865 4.7858C109.936 4.60497 109.971 4.41161 109.966 4.21725C109.966 3.77639 109.827 3.42044 109.55 3.14941C109.259 2.88725 108.881 2.74219 108.489 2.74219C108.097 2.74219 107.719 2.88725 107.428 3.14941C107.15 3.42095 107.012 3.77689 107.012 4.21725C107.005 4.41321 107.038 4.60863 107.109 4.79123C107.181 4.97384 107.289 5.13968 107.428 5.27835C107.567 5.41702 107.732 5.52552 107.915 5.59704C108.098 5.66855 108.293 5.70154 108.489 5.69392ZM102.955 6.67863V11.9065C102.923 12.198 102.788 12.4684 102.574 12.6692C102.36 12.8636 102.078 12.9674 101.789 12.9591C101.438 12.9591 101.161 12.8403 100.957 12.6029C100.753 12.3654 100.651 12.0483 100.652 11.6517V6.67863C100.652 6.65185 100.647 6.62533 100.637 6.60057C100.626 6.57582 100.611 6.55333 100.592 6.5344C100.574 6.51547 100.551 6.50047 100.526 6.49027C100.502 6.48007 100.475 6.47487 100.448 6.47497H98.0379C98.0111 6.47477 97.9845 6.4799 97.9597 6.49005C97.9348 6.5002 97.9122 6.51518 97.8932 6.53413C97.8742 6.55307 97.8591 6.57559 97.8489 6.6004C97.8386 6.6252 97.8334 6.65179 97.8335 6.67863V12.297C97.8335 13.2703 98.0995 14.0284 98.6314 14.5715C99.1632 15.1146 99.8599 15.3861 100.721 15.3861C101.694 15.3861 102.406 15.0637 102.857 14.419C102.879 14.3846 102.902 14.374 102.925 14.3846C102.936 14.3915 102.946 14.4015 102.952 14.4136C102.958 14.4256 102.96 14.4392 102.958 14.4525V15.0467C102.958 15.0735 102.964 15.1 102.974 15.1247C102.984 15.1495 102.999 15.172 103.018 15.1909C103.037 15.2099 103.059 15.2249 103.084 15.2351C103.109 15.2452 103.135 15.2504 103.162 15.2503H105.572C105.599 15.2504 105.626 15.2452 105.65 15.2351C105.675 15.2249 105.698 15.2099 105.717 15.1909C105.735 15.172 105.75 15.1495 105.761 15.1247C105.771 15.1 105.776 15.0735 105.776 15.0467V6.67863C105.776 6.65185 105.771 6.62533 105.761 6.60057C105.75 6.57582 105.735 6.55333 105.717 6.5344C105.698 6.51547 105.675 6.50047 105.65 6.49027C105.626 6.48007 105.599 6.47487 105.572 6.47497H103.162C103.135 6.47487 103.109 6.48007 103.084 6.49027C103.059 6.50047 103.037 6.51547 103.018 6.5344C102.999 6.55333 102.984 6.57582 102.974 6.60057C102.964 6.62533 102.958 6.65185 102.958 6.67863M92.4684 12.8233H90.6531C90.6416 12.8246 90.63 12.8234 90.6191 12.8196C90.6082 12.8158 90.5984 12.8096 90.5902 12.8015C90.5821 12.7933 90.5759 12.7834 90.5721 12.7726C90.5683 12.7617 90.567 12.7501 90.5684 12.7386V10.4809C90.567 10.4695 90.5683 10.4579 90.5721 10.447C90.5759 10.4361 90.5821 10.4262 90.5902 10.4181C90.5984 10.4099 90.6082 10.4037 90.6191 10.3999C90.63 10.3962 90.6416 10.3949 90.6531 10.3962H92.4692C92.9329 10.3962 93.2866 10.5007 93.5301 10.7097C93.7737 10.9187 93.8955 11.2159 93.8955 11.6014C93.8955 11.997 93.7709 12.2995 93.5217 12.509C93.2726 12.7185 92.9217 12.8233 92.4692 12.8233M90.6531 5.77935H92.3311C92.7948 5.77935 93.1508 5.88105 93.3989 6.08445C93.6471 6.28785 93.7717 6.57642 93.7727 6.95016C93.7727 7.31272 93.6481 7.59239 93.3989 7.78918C93.1498 7.98597 92.7938 8.08462 92.3311 8.08513H90.6531C90.6416 8.08647 90.63 8.08521 90.6191 8.08143C90.6082 8.07765 90.5984 8.07146 90.5902 8.06331C90.5821 8.05516 90.5759 8.04528 90.5721 8.03439C90.5683 8.02351 90.567 8.01191 90.5684 8.00046V5.86478C90.567 5.85334 90.5683 5.84174 90.5721 5.83085C90.5759 5.81997 90.5821 5.81008 90.5902 5.80193C90.5984 5.79379 90.6082 5.78759 90.6191 5.78381C90.63 5.78003 90.6416 5.77877 90.6531 5.78011M95.1685 9.07288C96.0731 8.58625 96.5257 7.78842 96.5262 6.67939C96.5262 5.51392 96.1725 4.67083 95.4652 4.15013C94.7579 3.62943 93.7132 3.36883 92.3311 3.36832H87.9529C87.9261 3.36811 87.8996 3.37324 87.8748 3.38341C87.85 3.39357 87.8274 3.40856 87.8085 3.42751C87.7895 3.44647 87.7745 3.469 87.7644 3.4938C87.7542 3.5186 87.7491 3.54517 87.7493 3.57197V15.0467C87.7491 15.0735 87.7542 15.1001 87.7644 15.1249C87.7745 15.1497 87.7895 15.1722 87.8085 15.1912C87.8274 15.2101 87.85 15.2251 87.8748 15.2353C87.8996 15.2454 87.9261 15.2506 87.9529 15.2503H92.4676C93.7353 15.2503 94.7594 14.9732 95.54 14.419C96.3205 13.8647 96.711 13.0216 96.7115 11.8897C96.7115 10.623 96.1967 9.71765 95.167 9.17356C95.0991 9.14 95.0991 9.10568 95.167 9.07212M85.8478 6.35599C85.1237 6.35599 84.5353 6.656 84.0828 7.25602C84.0713 7.28959 84.0546 7.30103 84.0317 7.28959C84.0198 7.28307 84.0101 7.2731 84.004 7.26097C83.9978 7.24885 83.9955 7.23516 83.9974 7.2217V6.67863C83.9976 6.65183 83.9924 6.62525 83.9823 6.60045C83.9721 6.57565 83.9571 6.55312 83.9382 6.53417C83.9192 6.51522 83.8967 6.50023 83.8719 6.49006C83.8471 6.4799 83.8205 6.47477 83.7937 6.47497H81.3834C81.3567 6.47487 81.3301 6.48007 81.3054 6.49027C81.2806 6.50047 81.2581 6.51547 81.2392 6.5344C81.2203 6.55333 81.2053 6.57582 81.1951 6.60057C81.1849 6.62533 81.1797 6.65185 81.1798 6.67863V15.0467C81.1797 15.0735 81.1849 15.1 81.1951 15.1247C81.2053 15.1495 81.2203 15.172 81.2392 15.1909C81.2581 15.2099 81.2806 15.2249 81.3054 15.2351C81.3301 15.2452 81.3567 15.2504 81.3834 15.2503H83.7937C83.8205 15.2506 83.8471 15.2454 83.8719 15.2353C83.8967 15.2251 83.9192 15.2101 83.9382 15.1912C83.9571 15.1722 83.9721 15.1497 83.9823 15.1249C83.9924 15.1001 83.9976 15.0735 83.9974 15.0467V10.5824C83.9904 10.4151 84.0194 10.2482 84.0824 10.0931C84.1455 9.93794 84.241 9.79813 84.3627 9.68308C84.6084 9.45539 84.9207 9.31261 85.2536 9.27577C85.3992 9.24917 85.5472 9.23767 85.6952 9.24145C85.8896 9.24316 86.0832 9.26592 86.2726 9.30933C86.4191 9.36679 86.4981 9.32738 86.5098 9.19111L86.9004 6.83118C86.9142 6.78351 86.9116 6.73258 86.8931 6.68654C86.8745 6.6405 86.8411 6.602 86.7981 6.57718C86.5719 6.42972 86.2551 6.35599 85.8478 6.35599ZM75.9863 8.74948C76.2659 8.73917 76.5418 8.81621 76.7757 8.96991C76.9916 9.12716 77.1448 9.35576 77.2082 9.61519C77.2482 9.72415 77.2711 9.83865 77.2761 9.95461C77.2773 9.96382 77.2764 9.9732 77.2735 9.98202C77.2705 9.99083 77.2655 9.99883 77.259 10.0054C77.2524 10.012 77.2444 10.0169 77.2356 10.0199C77.2268 10.0229 77.2174 10.0238 77.2082 10.0225H74.7979C74.73 10.0225 74.7071 9.99428 74.73 9.93783C74.7436 9.81584 74.772 9.69596 74.8147 9.58087C75.0069 9.02712 75.3974 8.74999 75.9863 8.74948ZM80.1447 10.0904C80.0439 9.39895 79.798 8.73665 79.4232 8.14691C79.067 7.58611 78.5744 7.12477 77.9915 6.80601C77.3759 6.47686 76.6865 6.31041 75.9885 6.32243C75.06 6.32243 74.2594 6.56269 73.5867 7.04322C72.9139 7.52375 72.4308 8.18301 72.1374 9.02101C71.9559 9.56834 71.8642 10.1415 71.8659 10.7181C71.8659 11.5668 71.9846 12.2741 72.2221 12.8401C72.519 13.6195 73.0652 14.279 73.7758 14.7157C74.4943 15.1636 75.3684 15.3871 76.3981 15.3861C77.0493 15.3927 77.696 15.2775 78.305 15.0467C78.8638 14.8365 79.3664 14.4997 79.7733 14.0628C79.793 14.0456 79.8092 14.0247 79.8209 14.0013C79.8325 13.9778 79.8394 13.9523 79.8412 13.9262C79.8418 13.8998 79.8359 13.8736 79.824 13.8499C79.8122 13.8263 79.7948 13.8058 79.7733 13.7905L78.4659 12.297C78.4505 12.2755 78.4301 12.2581 78.4065 12.2462C78.3828 12.2344 78.3566 12.2285 78.3302 12.2291C78.2999 12.2303 78.2703 12.2385 78.2438 12.2532C78.2173 12.2679 78.1946 12.2887 78.1776 12.3138C77.7708 12.778 77.2115 13.0102 76.4996 13.0102C76.1523 13.0212 75.8077 12.9452 75.4973 12.789C75.2434 12.6585 75.0318 12.4585 74.8871 12.2123C74.8119 12.0552 74.7551 11.8898 74.7178 11.7196C74.715 11.7147 74.7132 11.7092 74.7125 11.7036C74.7118 11.6979 74.7123 11.6922 74.7138 11.6867C74.7154 11.6812 74.718 11.6761 74.7216 11.6717C74.7252 11.6673 74.7296 11.6636 74.7346 11.6609C74.7536 11.6448 74.7776 11.6356 74.8025 11.6349H79.9746C80.003 11.6383 80.0317 11.6354 80.0588 11.6266C80.0859 11.6178 80.1108 11.6032 80.1317 11.5838C80.1527 11.5645 80.1692 11.5408 80.1801 11.5145C80.191 11.4882 80.1961 11.4598 80.1951 11.4313C80.222 10.9837 80.2049 10.5346 80.144 10.0904M66.8204 8.74948C67.1 8.73917 67.3759 8.81621 67.6098 8.96991C67.8257 9.12716 67.9789 9.35576 68.0423 9.61519C68.0823 9.72415 68.1052 9.83865 68.1102 9.95461C68.1114 9.96382 68.1105 9.9732 68.1076 9.98202C68.1046 9.99083 68.0996 9.99883 68.0931 10.0054C68.0865 10.012 68.0785 10.0169 68.0697 10.0199C68.0609 10.0229 68.0515 10.0238 68.0423 10.0225H65.635C65.5672 10.0225 65.5443 9.99428 65.5672 9.93783C65.5807 9.81575 65.6093 9.69583 65.6526 9.58087C65.8448 9.02712 66.2351 8.74999 66.8234 8.74948M70.9819 10.0904C70.881 9.39895 70.6351 8.73665 70.2603 8.14691C69.9035 7.58582 69.4101 7.12445 68.8264 6.80601C68.2108 6.47686 67.5213 6.31041 66.8234 6.32243C65.8954 6.32243 65.0948 6.56269 64.4215 7.04322C63.7483 7.52375 63.2652 8.18301 62.9723 9.02101C62.7907 9.56834 62.699 10.1415 62.7008 10.7181C62.7008 11.5668 62.8198 12.2741 63.0577 12.8401C63.3543 13.6195 63.9003 14.2789 64.6107 14.7157C65.3292 15.1636 66.2033 15.3871 67.233 15.3861C67.8842 15.3927 68.5309 15.2775 69.1399 15.0467C69.6987 14.8365 70.2012 14.4997 70.6081 14.0628C70.6279 14.0456 70.6441 14.0247 70.6557 14.0013C70.6674 13.9778 70.6743 13.9523 70.676 13.9262C70.6766 13.8998 70.6707 13.8736 70.6589 13.8499C70.6471 13.8263 70.6297 13.8058 70.6081 13.7905L69.2962 12.297C69.2809 12.2754 69.2605 12.258 69.2368 12.2461C69.2131 12.2343 69.1869 12.2285 69.1604 12.2291C69.1302 12.2304 69.1006 12.2387 69.0742 12.2534C69.0477 12.2681 69.025 12.2888 69.0079 12.3138C68.6011 12.778 68.0418 13.0102 67.3299 13.0102C66.9828 13.0213 66.6385 12.9453 66.3284 12.789C66.0745 12.6585 65.8628 12.4585 65.7182 12.2123C65.6431 12.055 65.586 11.8897 65.5481 11.7196C65.5453 11.7147 65.5435 11.7092 65.5428 11.7036C65.5421 11.6979 65.5426 11.6922 65.5441 11.6867C65.5457 11.6812 65.5483 11.6761 65.5519 11.6717C65.5555 11.6673 65.5599 11.6636 65.5649 11.6609C65.5839 11.6448 65.6078 11.6356 65.6328 11.6349H70.8103C70.8386 11.6383 70.8673 11.6354 70.8944 11.6266C70.9215 11.6178 70.9464 11.6032 70.9674 11.5838C70.9883 11.5645 71.0048 11.5408 71.0157 11.5145C71.0267 11.4882 71.0318 11.4598 71.0307 11.4313C71.058 10.9837 71.0409 10.5346 70.9796 10.0904M61.3385 6.35294C60.6139 6.35294 60.0253 6.65295 59.5728 7.25297C59.5613 7.28653 59.5445 7.29798 59.5224 7.28653C59.5105 7.28002 59.5008 7.27004 59.4947 7.25792C59.4886 7.2458 59.4863 7.23211 59.4881 7.21865V6.67863C59.4882 6.65185 59.483 6.62533 59.4728 6.60057C59.4626 6.57582 59.4476 6.55333 59.4287 6.5344C59.4097 6.51547 59.3872 6.50047 59.3625 6.49027C59.3377 6.48007 59.3112 6.47487 59.2844 6.47497H56.8742C56.8474 6.47487 56.8209 6.48007 56.7961 6.49027C56.7714 6.50047 56.7489 6.51547 56.7299 6.5344C56.711 6.55333 56.696 6.57582 56.6858 6.60057C56.6756 6.62533 56.6704 6.65185 56.6705 6.67863V15.0467C56.6704 15.0735 56.6756 15.1 56.6858 15.1247C56.696 15.1495 56.711 15.172 56.7299 15.1909C56.7489 15.2099 56.7714 15.2249 56.7961 15.2351C56.8209 15.2452 56.8474 15.2504 56.8742 15.2503H59.2844C59.3112 15.2504 59.3377 15.2452 59.3625 15.2351C59.3872 15.2249 59.4097 15.2099 59.4287 15.1909C59.4476 15.172 59.4626 15.1495 59.4728 15.1247C59.483 15.1 59.4882 15.0735 59.4881 15.0467V10.5824C59.4881 10.2091 59.6099 9.90936 59.8534 9.68308C60.099 9.45526 60.4114 9.31246 60.7443 9.27577C60.8897 9.24911 61.0374 9.2376 61.1852 9.24145C61.3796 9.24307 61.5732 9.26584 61.7626 9.30933C61.9095 9.36679 61.9889 9.32738 62.0006 9.19111L62.3911 6.83118C62.4049 6.78351 62.4023 6.73258 62.3838 6.68654C62.3653 6.6405 62.3319 6.602 62.2889 6.57718C62.0621 6.42972 61.7453 6.35599 61.3385 6.35599M51.1536 13.3664C50.8485 13.3664 50.6108 13.2929 50.4404 13.1459C50.3561 13.0723 50.2894 12.9807 50.2453 12.8779C50.2012 12.775 50.1808 12.6636 50.1857 12.5518C50.1788 12.4203 50.2075 12.2895 50.2687 12.173C50.3299 12.0565 50.4214 11.9586 50.5335 11.8897C50.7654 11.7422 51.0959 11.6688 51.525 11.6693H52.5433C52.5548 11.6678 52.5665 11.669 52.5775 11.6727C52.5885 11.6764 52.5985 11.6826 52.6067 11.6907C52.6149 11.6989 52.6212 11.7088 52.625 11.7198C52.6288 11.7307 52.6301 11.7424 52.6287 11.7539V12.1612C52.6336 12.3294 52.5985 12.4964 52.5262 12.6484C52.4539 12.8003 52.3466 12.933 52.213 13.0353C51.9354 13.2555 51.5817 13.3659 51.1521 13.3664M51.4236 6.33921C50.7595 6.3303 50.0999 6.44835 49.4801 6.68702C48.8979 6.91889 48.4352 7.23568 48.0919 7.6374C47.7576 8.01338 47.5524 8.48646 47.5061 8.98745C47.5061 9.06373 47.574 9.11712 47.7098 9.14L50.1506 9.46264C50.252 9.47408 50.3313 9.41764 50.3878 9.29255C50.4597 9.118 50.5964 8.97805 50.7692 8.90203C50.9883 8.7957 51.2297 8.7434 51.4732 8.74948C51.8357 8.74948 52.1187 8.83719 52.3221 9.01263C52.4239 9.10223 52.5042 9.21364 52.5571 9.33857C52.6099 9.46349 52.6339 9.59871 52.6272 9.73418V10.0568C52.6286 10.0683 52.6273 10.08 52.6235 10.091C52.6197 10.1019 52.6134 10.1118 52.6052 10.12C52.5969 10.1282 52.5869 10.1343 52.576 10.1381C52.565 10.1418 52.5533 10.143 52.5418 10.1415H50.8988C49.7451 10.1415 48.8651 10.379 48.259 10.8539C47.6528 11.3288 47.3503 12.0023 47.3513 12.8744C47.3513 13.7007 47.62 14.3259 48.1575 14.75C48.695 15.1741 49.4163 15.3861 50.3214 15.3861C51.3623 15.3861 52.0979 15.0693 52.5281 14.4357C52.5509 14.3907 52.5731 14.3709 52.5959 14.3762C52.6188 14.3816 52.6303 14.4075 52.6303 14.4525V15.0467C52.6296 15.0735 52.6346 15.1002 52.6449 15.125C52.6551 15.1498 52.6704 15.1723 52.6898 15.1909C52.7083 15.2103 52.7307 15.2257 52.7555 15.2359C52.7803 15.2462 52.8071 15.2511 52.8339 15.2503H55.2442C55.271 15.2504 55.2975 15.2452 55.3222 15.2351C55.347 15.2249 55.3695 15.2099 55.3884 15.1909C55.4073 15.172 55.4223 15.1495 55.4325 15.1247C55.4427 15.1 55.4479 15.0735 55.4478 15.0467V9.25899C55.4486 8.71791 55.2627 8.19311 54.9215 7.77317C54.5707 7.3262 54.0899 6.97559 53.4792 6.72134C52.8266 6.4591 52.1283 6.32946 51.4251 6.33997M42.0891 15.3861C42.9948 15.3861 43.7898 15.2193 44.4742 14.8858C45.131 14.5761 45.6849 14.0842 46.0699 13.4686C46.4482 12.8584 46.6376 12.1511 46.6381 11.3466C46.6379 11.3236 46.6324 11.3009 46.622 11.2803C46.6117 11.2597 46.5969 11.2417 46.5786 11.2276C46.5386 11.1933 46.4872 11.1751 46.4345 11.1765L44.0242 11.0598C43.8884 11.0598 43.8206 11.1216 43.8206 11.2459C43.8206 11.7671 43.6622 12.1859 43.3454 12.5022C43.0286 12.8185 42.6098 12.9769 42.0891 12.9774C41.5684 12.9774 41.1497 12.819 40.8329 12.5022C40.5161 12.1854 40.3577 11.7666 40.3577 11.2459V7.39179C40.3577 6.87058 40.5161 6.44904 40.8329 6.12716C41.1497 5.80529 41.5684 5.64435 42.0891 5.64435C42.6093 5.64435 43.0281 5.803 43.3454 6.1203C43.6627 6.4376 43.8211 6.86143 43.8206 7.39179C43.8206 7.51612 43.8884 7.5779 44.0242 7.5779L46.4345 7.42535C46.4872 7.42677 46.5386 7.40856 46.5786 7.37425C46.5983 7.35765 46.6138 7.33679 46.6241 7.31326C46.6344 7.28973 46.6392 7.26415 46.6381 7.23848C46.6381 6.44675 46.4487 5.74808 46.0699 5.14246C45.6824 4.53199 45.1289 4.04463 44.4742 3.73749C43.7893 3.40188 42.9943 3.23357 42.0891 3.23255C41.184 3.23153 40.3882 3.40696 39.7017 3.75884C39.0382 4.09053 38.4842 4.60638 38.1061 5.24467C37.7267 5.88385 37.5373 6.62117 37.5378 7.45663V11.1231C37.5378 11.9713 37.7273 12.718 38.1061 13.3633C38.4814 14.0065 39.0358 14.5265 39.7017 14.8598C40.3867 15.2107 41.1817 15.3861 42.0869 15.3861" fill="#092347"/>
<path d="M143.339 1.05918C143.719 1.26364 144.035 1.56802 144.254 1.93939C144.474 2.31971 144.586 2.75261 144.579 3.19181C144.585 3.64732 144.472 4.09647 144.25 4.49458C144.036 4.87769 143.719 5.19337 143.335 5.40606C142.941 5.62652 142.497 5.73987 142.045 5.7348C141.597 5.73967 141.156 5.62627 140.765 5.40606C140.385 5.19162 140.072 4.87614 139.86 4.49458C139.639 4.09647 139.525 3.64732 139.531 3.19181C139.525 2.75225 139.639 2.31933 139.86 1.93939C140.077 1.56962 140.39 1.26546 140.765 1.05918C141.158 0.841981 141.6 0.730785 142.049 0.736541C142.5 0.731261 142.944 0.842394 143.339 1.05918ZM143.327 4.49153C143.495 4.32104 143.626 4.11821 143.714 3.89532C143.801 3.67243 143.842 3.43413 143.835 3.19487C143.839 2.88711 143.759 2.58409 143.604 2.31821C143.449 2.05233 143.224 1.83359 142.954 1.68539C142.676 1.53472 142.365 1.45581 142.049 1.45581C141.733 1.45581 141.422 1.53472 141.144 1.68539C140.878 1.83192 140.657 2.04849 140.505 2.31161C140.352 2.57925 140.273 2.88322 140.276 3.19181C140.276 3.72116 140.444 4.15541 140.778 4.49458C141.122 4.82197 141.579 5.00398 142.054 5.00271C142.529 5.00143 142.985 4.81695 143.327 4.48772L143.327 4.49153ZM142.632 3.38174C142.599 3.39013 142.591 3.4153 142.607 3.45801L142.867 4.18948C142.876 4.20885 142.88 4.23 142.88 4.25127C142.88 4.32754 142.835 4.36339 142.744 4.36339H142.433C142.396 4.36608 142.359 4.35489 142.329 4.33196C142.3 4.30902 142.279 4.27595 142.273 4.23906L142.037 3.54496C142.02 3.5114 141.999 3.49539 141.975 3.49539H141.95C141.942 3.49425 141.933 3.49507 141.925 3.49777C141.917 3.50048 141.91 3.505 141.904 3.51098C141.898 3.51696 141.893 3.52424 141.891 3.53225C141.888 3.54026 141.887 3.54879 141.888 3.55717V4.21465C141.889 4.23483 141.885 4.2549 141.878 4.27365C141.87 4.29239 141.859 4.30942 141.845 4.32369C141.83 4.33796 141.813 4.34918 141.795 4.35666C141.776 4.36414 141.756 4.36773 141.736 4.3672H141.463C141.442 4.36773 141.422 4.36414 141.404 4.35666C141.385 4.34918 141.368 4.33796 141.353 4.32369C141.339 4.30942 141.328 4.29239 141.32 4.27365C141.313 4.2549 141.309 4.23483 141.31 4.21465V2.21169C141.309 2.19151 141.313 2.17144 141.32 2.1527C141.328 2.13395 141.339 2.11692 141.353 2.10265C141.368 2.08838 141.385 2.07716 141.404 2.06968C141.422 2.0622 141.442 2.05861 141.463 2.05914H142.194C142.292 2.05564 142.389 2.07255 142.48 2.1088C142.57 2.14505 142.653 2.19984 142.721 2.26966C142.788 2.33839 142.841 2.4199 142.876 2.50937C142.912 2.59885 142.929 2.69447 142.926 2.79061C142.93 3.06825 142.83 3.26275 142.632 3.37792V3.38174ZM141.888 2.6251V2.99731C141.887 3.00575 141.888 3.01437 141.89 3.02248C141.893 3.03059 141.897 3.03798 141.903 3.04405C141.909 3.05012 141.917 3.05471 141.925 3.05745C141.933 3.0602 141.941 3.06102 141.95 3.05986H142.111C142.145 3.06092 142.178 3.05465 142.209 3.04148C142.24 3.02831 142.268 3.00856 142.291 2.98359C142.336 2.9368 142.36 2.87439 142.359 2.80968C142.361 2.7766 142.356 2.74351 142.344 2.71258C142.332 2.68165 142.314 2.65358 142.291 2.63019C142.267 2.6068 142.239 2.58861 142.208 2.57683C142.177 2.56504 142.144 2.55992 142.111 2.56179H141.95C141.942 2.56072 141.933 2.56151 141.926 2.56409C141.918 2.56667 141.911 2.57097 141.905 2.57669C141.899 2.5824 141.894 2.58937 141.891 2.59709C141.888 2.60481 141.887 2.61308 141.888 2.62128V2.6251Z" fill="#092347"/>
</g>
<defs>
<clipPath id="clip0_56_9454">
<rect width="144.159" height="18" fill="white" transform="translate(0.420654)"/>
</clipPath>
</defs>
</svg>
