<?xml version="1.0" encoding="UTF-8"?><svg width="107" height="20" viewBox="0 0 107 20" fill="none" xmlns="http://www.w3.org/2000/svg">
<g clip-path="url(#clip0_56_8823)">
<path fill-rule="evenodd" clip-rule="evenodd" d="M100.958 10.5938C101.747 10.3027 104.423 9.11088 104.423 5.71237C104.423 3.25478 102.486 0.499878 98.3026 0.499878H92.8853V17.7724H96.616V10.9497H96.8064L102.153 17.7724H106.611L100.958 10.5938ZM98.6919 7.64712H96.4657V4.0735H98.6919C99.8689 4.0735 100.643 4.8572 100.643 5.85996C100.643 6.73657 99.989 7.64712 98.6919 7.64712Z" fill="#6E46AE"/>
<path fill-rule="evenodd" clip-rule="evenodd" d="M84.2339 14.4967V12.1143H88.113V9.13626H84.2339V6.75385H89.3065V3.47803H80.9517V17.7725H89.3065V14.4967H84.2339Z" fill="#6E46AE"/>
<path fill-rule="evenodd" clip-rule="evenodd" d="M74.0861 17.7725V6.75385H77.3683V3.47803H67.2231V6.75385H70.5054L70.4935 17.7725H74.0861Z" fill="#6E46AE"/>
<path fill-rule="evenodd" clip-rule="evenodd" d="M59.2918 17.7725C56.057 17.7725 54.3764 15.9931 54.095 15.7233L55.9118 13.1959C56.1957 13.4418 57.4835 14.5603 59.1821 14.5603C60.3357 14.5603 60.6697 14.0179 60.6697 13.5839C60.6697 13.1334 60.3251 12.7328 59.1077 12.2876L58.0352 11.895C56.0599 11.1723 54.8032 9.82014 54.8032 7.81122C54.8032 5.34799 56.8139 3.47803 59.669 3.47803C62.242 3.47803 63.6835 4.69157 63.8429 4.82874L62.1419 7.43159C61.7937 7.19723 60.8327 6.68327 59.7683 6.68327C58.7723 6.68327 58.3182 7.10006 58.3182 7.60038C58.3182 8.25191 58.9085 8.52869 59.9582 8.9125L60.9285 9.26789C62.9613 10.0117 64.2401 11.5396 64.2401 13.3681C64.2401 15.878 62.2187 17.7725 59.2918 17.7725Z" fill="#6E46AE"/>
<path fill-rule="evenodd" clip-rule="evenodd" d="M50.5122 3.47803H46.9315V10.6253L38.5767 3.47803V17.7725H42.1573V10.9231L50.5122 17.7725V3.47803Z" fill="#6E46AE"/>
<path fill-rule="evenodd" clip-rule="evenodd" d="M27.8376 3.47803C23.8345 3.47803 20.6763 6.67803 20.6763 10.6253C20.6763 14.5727 23.8345 17.7725 27.8376 17.7725C31.8406 17.7725 34.9989 14.5725 34.9989 10.6253C34.9989 6.67821 31.8406 3.47803 27.8376 3.47803ZM27.8376 14.4264C25.7278 14.4264 24.1043 12.7247 24.1043 10.625C24.1043 8.52565 25.7278 6.82353 27.8376 6.82353C29.9473 6.82353 31.5712 8.52565 31.5712 10.625C31.5712 12.7247 29.9474 14.4264 27.8376 14.4264Z" fill="#00B6B4"/>
<path fill-rule="evenodd" clip-rule="evenodd" d="M4.10396 17.773V9.07838L8.74108 13.5371L13.3786 9.07838V17.773H17.0959V0.500488L8.74168 8.52982L0.38623 0.500488V17.773H4.10396Z" fill="#6E46AE"/>
</g>
<defs>
<clipPath id="clip0_56_8823">
<rect width="106.227" height="17.2727" fill="white" transform="translate(0.38623 0.5)"/>
</clipPath>
</defs>
</svg>
